<svg width="1055" height="1487" viewBox="0 0 1055 1487" fill="none" xmlns="http://www.w3.org/2000/svg">
<path d="M311.137 1126.53C339.505 1179.53 533.161 1341.66 496.601 1361.23C457.424 1347.8 203.277 1260.59 174.218 1219.32C145.158 1178.05 160.392 1080.46 196.951 1060.89C233.511 1041.32 282.768 1073.54 311.137 1126.53Z" fill="url(#paint0_radial_102_4)"/>
<path d="M732.228 1362.11C773.079 1360.25 943.476 1322.33 945.098 1357.98C949.754 1465.71 830.922 1460.77 789.404 1454.42C747.886 1448.06 636.31 1537.81 614.436 1432.37C612.814 1396.73 691.376 1363.97 732.228 1362.11Z" fill="url(#paint1_radial_102_4)"/>
<path d="M530.903 1316.84C546.656 1316.12 612.363 1301.5 612.988 1315.24C614.783 1356.79 583.623 1382.2 567.613 1379.75C551.603 1377.3 493.916 1384.59 485.481 1343.93C484.856 1330.19 515.15 1317.56 530.903 1316.84Z" fill="url(#paint2_radial_102_4)"/>
<path d="M666.563 241.828C562.851 237.873 540.599 246.44 476.462 281.143C437.564 220.739 372.457 183.2 356.615 184.58C340.773 185.959 315.458 303.497 322.866 380.464C179.786 289.52 45.9801 314.25 16.3627 357.013C-13.2548 399.777 -3.70897 480.898 53.5564 477.027C201.754 402.176 287.257 462.888 294.626 605.318C239.137 718.202 229.742 785.214 208.53 903.973C124.4 1079.65 227.816 1221.94 341.463 1269.53C455.11 1317.12 419.141 1305.15 473.018 1341.95C518.598 1350.14 537.298 1339.72 569.446 1318.5C597.367 1442.36 709.268 1415.07 764.369 1392.99C764.369 1392.99 825.67 1392.99 864.93 1396.44C904.19 1399.89 948.271 1326.09 933.118 1279.19C914.218 1238.45 915.14 1215.26 941.384 1172.97C975.499 881.745 977.251 764.226 944.139 614.284C944.139 444.61 903.562 357.125 837.379 303.904C833.611 148.503 811.206 89.3961 800.874 88.0166C790.543 86.6372 696.012 171.3 666.563 241.828Z" fill="#433876"/>
<path d="M502.861 405.839C523.094 405.839 541.011 415.586 556.088 428.719C570.766 441.504 582.626 457.394 591.162 470.263C569.133 491.727 543.059 521.297 502.909 521.321C483.414 519.947 465.796 515.741 453.094 508.035C440.452 500.365 432.721 489.271 432.72 473.913C432.72 458.38 440.071 441.342 452.578 428.175C465.067 415.026 482.6 405.839 502.861 405.839Z" fill="#C79CEE" stroke="#1E1643" stroke-width="3"/>
<path d="M734.632 350.255C719.871 359.464 712.867 376.857 708.77 395.376C706.728 404.605 705.428 414.007 704.221 422.681C703.171 430.224 702.185 437.261 700.83 443.063C706.516 441.875 713.691 441.568 721.623 441.565C726.206 441.563 731.085 441.665 736.122 441.768C741.164 441.871 746.37 441.975 751.631 441.981C772.745 442.006 794.349 440.432 809.245 431.165C822.897 421.257 830.919 410.345 833.816 399.184C836.707 388.043 834.547 376.439 827.414 365.005C820.417 353.789 804.837 345.347 786.992 342.122C769.191 338.904 749.539 340.956 734.632 350.255Z" fill="#BC8DFE" stroke="#1E1643" stroke-width="3"/>
<path d="M572.435 469.78C572.435 500.215 547.546 513.866 519.393 513.866C489.773 509.044 471.863 489.882 471.863 459.447C471.863 429.012 485.041 408.472 513.194 408.472C541.346 408.472 572.435 439.344 572.435 469.78Z" fill="#1E1643"/>
<path d="M807.333 391.251C807.333 421.686 783.822 442.226 755.669 442.226C726.049 437.404 708.138 432.708 708.138 402.272C708.138 371.837 734.405 341.654 762.558 341.654C790.71 341.654 807.333 360.815 807.333 391.251Z" fill="#1E1643"/>
<path d="M458.086 439.47C471.517 425.437 484.951 420.871 499.417 420.871" stroke="url(#paint3_linear_102_4)" stroke-width="10"/>
<path d="M808.711 371.963C795.28 357.93 781.846 353.364 767.38 353.364" stroke="url(#paint4_linear_102_4)" stroke-width="10"/>
<path d="M739.117 363.008C732.085 368.122 729.945 373.013 730.182 378.163" stroke="url(#paint5_linear_102_4)" stroke-width="10"/>
<path d="M532.468 427.759C539.5 432.874 541.64 437.764 541.404 442.914" stroke="url(#paint6_linear_102_4)" stroke-width="10"/>
<path d="M539.155 464.331C540.253 470.318 521.732 483.09 496.661 487.69C471.59 492.29 449.463 486.977 448.364 480.989C447.266 475.002 459.88 461.536 484.951 456.935C510.022 452.335 538.056 458.344 539.155 464.331Z" fill="url(#paint7_radial_102_4)"/>
<path d="M828.577 389.441C829.766 395.925 811.245 409.474 786.002 414.106C760.759 418.737 738.353 412.698 737.164 406.214C735.974 399.73 748.524 385.349 773.767 380.718C799.01 376.086 827.387 382.958 828.577 389.441Z" fill="url(#paint8_radial_102_4)"/>
<path d="M661.985 476.135C661.985 476.135 629.609 487.156 629.609 489.222C629.609 491.289 668.185 513.332 671.629 511.955C675.074 510.578 699.183 470.623 697.806 469.246C696.428 467.868 661.985 476.135 661.985 476.135Z" fill="#1E1643" stroke="#1D1643"/>
<path d="M693.711 582.032C693.711 582.032 728.843 568.944 730.221 563.433C731.599 557.923 679.302 517.346 675.858 518.723C672.414 520.1 636.536 591.675 637.914 593.053C639.292 594.431 693.711 582.032 693.711 582.032Z" fill="#1E1643" stroke="#1D1643"/>
<path d="M687.548 576.551C687.548 576.551 719.292 571.104 719.292 569.037C719.292 566.971 680.716 544.927 677.272 546.305C673.828 547.682 655.861 583.44 657.239 584.817C658.616 586.195 687.548 576.551 687.548 576.551Z" fill="#574D8A"/>
<path d="M670.94 509.733L675.762 523.51" stroke="#1D1643" stroke-width="4"/>
<path d="M724.671 252.115C724.671 252.115 695.739 245.915 694.361 239.716C692.984 233.517 773.579 112.278 790.112 113.656C806.644 115.034 823.992 164.148 830.754 216.972" stroke="#1D1643" stroke-width="3"/>
<path d="M444.997 310.667C444.997 310.667 456.209 303.213 457.382 299.204C458.555 295.195 389.938 216.789 375.862 217.68C361.787 218.571 352.937 235.863 347.181 270.025" stroke="#1D1643" stroke-width="3"/>
<path d="M716.092 777.788C750.938 891.88 1000.76 707.508 1000.76 650.007C1000.76 650.007 1005.02 624.45 1007.86 619.481C925.385 348.794 874.17 205.381 664.979 147.434L611.027 217.004C749.999 422.301 738.284 545.066 718.851 748.706L718.848 748.739C717.941 758.24 717.018 767.918 716.092 777.788Z" fill="url(#paint9_radial_102_4)" fill-opacity="0.2"/>
<path d="M593.28 55.822C575.984 22.0506 516.611 -0.969823 466.208 3.99946C419.017 8.65205 402.85 25.5684 378.927 50.599C377.298 52.3029 375.634 54.0443 373.921 55.822M593.28 55.822C668.714 -1.73397 804.119 32.3954 828.256 38.7845M593.28 55.822L664.979 108.39M593.28 55.822L476.146 99.8713M828.256 38.7845C852.392 45.1735 821.164 23.6017 828.256 38.7845ZM828.256 38.7845C925.242 27.3974 983.724 107.645 1011.41 185.023M828.256 38.7845C828.537 79.4887 790.352 85.6145 736.385 94.2724C714.649 97.7594 690.353 101.657 664.979 108.39M1011.41 185.023C1106.09 272.774 1010.7 614.512 1007.86 619.481M1011.41 185.023C876.703 115.74 804.328 92.2014 689.826 121.168M1007.86 619.481C1005.02 624.45 1000.76 650.007 1000.76 650.007C1000.76 707.508 750.938 891.88 716.092 777.788M1007.86 619.481C925.385 348.794 874.17 205.381 664.979 147.434M716.092 777.788C645.789 852.118 576.22 862.014 383.86 790.566M716.092 777.788C717.018 767.918 717.941 758.24 718.848 748.739M383.86 790.566C216.517 694.589 194.431 593.88 172.31 402.962M383.86 790.566C356.253 522.821 356.086 379.268 541.457 202.807M172.31 402.962C208.313 196.757 226.555 77.9351 373.921 55.822M172.31 402.962C198.194 376.288 221.695 350.174 243.817 325.594C328.214 231.814 392.532 160.347 492.474 165.182M373.921 55.822C373.921 55.822 458.399 48.0488 476.146 99.8713M541.457 202.807L492.474 165.182M541.457 202.807L611.027 217.004M611.027 217.004L664.979 147.434M611.027 217.004C749.999 422.301 738.284 545.066 718.851 748.706M664.979 147.434L689.826 121.168M689.826 121.168L664.979 108.39M476.146 99.8713L492.474 165.182M718.851 748.706L718.848 748.739M718.851 748.706C718.85 748.717 718.849 748.728 718.848 748.739" stroke="#FC8500"/>
<path fill-rule="evenodd" clip-rule="evenodd" d="M541.457 202.807L492.474 165.182C392.532 160.347 328.214 231.814 243.817 325.594C221.695 350.174 198.194 376.288 172.31 402.962C194.431 593.88 216.517 694.589 383.86 790.566C356.253 522.821 356.086 379.268 541.457 202.807Z" fill="url(#paint10_radial_102_4)" fill-opacity="0.2"/>
<path d="M593.28 55.822C575.984 22.0506 516.611 -0.969823 466.208 3.99946C415.805 8.96875 400.792 27.9282 373.921 55.822M593.28 55.822C668.714 -1.73397 804.119 32.3954 828.256 38.7845M593.28 55.822L664.979 108.39M593.28 55.822L476.146 99.8713M828.256 38.7845C852.392 45.1735 821.164 23.6017 828.256 38.7845ZM828.256 38.7845C925.242 27.3974 983.724 107.645 1011.41 185.023M828.256 38.7845C828.537 79.4887 790.352 85.6145 736.385 94.2724C714.649 97.7594 690.353 101.657 664.979 108.39M1011.41 185.023C1106.09 272.774 1010.7 614.512 1007.86 619.481M1011.41 185.023C876.703 115.74 804.328 92.2014 689.826 121.168M1007.86 619.481C1005.02 624.45 1000.76 650.007 1000.76 650.007C1000.76 707.508 750.938 891.88 716.092 777.788M1007.86 619.481C925.385 348.794 874.17 205.381 664.979 147.434M716.092 777.788C645.789 852.118 576.22 862.014 383.86 790.566M716.092 777.788C717.019 767.907 717.943 758.218 718.851 748.706C738.284 545.066 749.999 422.301 611.027 217.004M383.86 790.566C216.517 694.589 194.431 593.88 172.31 402.962M383.86 790.566C356.253 522.821 356.086 379.268 541.457 202.807M172.31 402.962C172.881 399.69 173.448 396.44 174.011 393.212M172.31 402.962C198.194 376.288 221.695 350.174 243.817 325.594C328.214 231.814 392.532 160.347 492.474 165.182M373.921 55.822C373.921 55.822 458.399 48.0488 476.146 99.8713M373.921 55.822C229.058 77.5596 208.97 192.749 174.13 392.531M541.457 202.807L492.474 165.182M541.457 202.807L611.027 217.004M611.027 217.004L664.979 147.434M664.979 147.434L689.826 121.168M689.826 121.168L664.979 108.39M476.146 99.8713L492.474 165.182M174.13 392.531L174.126 392.555M174.13 392.531C174.129 392.539 174.127 392.547 174.126 392.555M174.126 392.555L174.097 392.72M174.126 392.555C174.116 392.61 174.107 392.665 174.097 392.72M174.097 392.72L174.067 392.889M174.097 392.72C174.087 392.777 174.077 392.833 174.067 392.889M174.067 392.889L174.053 392.971M174.067 392.889C174.063 392.916 174.058 392.944 174.053 392.971M174.053 392.971L174.017 393.176M174.053 392.971C174.041 393.039 174.029 393.108 174.017 393.176M174.017 393.176L174.011 393.212M174.017 393.176C174.015 393.188 174.013 393.2 174.011 393.212" stroke="#FC8500"/>
<path fill-rule="evenodd" clip-rule="evenodd" d="M466.208 3.99946C516.611 -0.969823 575.984 22.0506 593.28 55.822C668.714 -1.73397 804.119 32.3954 828.256 38.7845C925.242 27.3974 983.724 107.645 1011.41 185.023C876.703 115.74 804.328 92.2014 689.826 121.168L664.979 147.434L611.027 217.004L541.457 202.807L492.474 165.182C392.532 160.347 328.214 231.814 243.817 325.594C221.695 350.174 198.194 376.288 172.31 402.962C172.9 399.581 173.486 396.223 174.067 392.889L174.097 392.72L174.126 392.555L174.13 392.531C208.97 192.749 229.058 77.5596 373.921 55.822C375.634 54.0443 377.298 52.3029 378.927 50.599C402.85 25.5684 419.017 8.65205 466.208 3.99946Z" fill="#FFB300" fill-opacity="0.2"/>
<path d="M593.28 55.822C575.984 22.0506 516.611 -0.969823 466.208 3.99946C419.017 8.65205 402.85 25.5684 378.927 50.599C377.298 52.3029 375.634 54.0443 373.921 55.822M593.28 55.822C668.714 -1.73397 804.119 32.3954 828.256 38.7845M593.28 55.822L664.979 108.39M593.28 55.822L476.146 99.8713M828.256 38.7845C852.392 45.1735 821.164 23.6017 828.256 38.7845ZM828.256 38.7845C925.242 27.3974 983.724 107.645 1011.41 185.023M828.256 38.7845C828.65 95.8826 753.355 84.9399 664.979 108.39M1011.41 185.023C1106.09 272.774 1010.7 614.512 1007.86 619.481M1011.41 185.023C876.703 115.74 804.328 92.2014 689.826 121.168M1007.86 619.481C1005.02 624.45 1000.76 650.007 1000.76 650.007C1000.76 707.508 750.938 891.88 716.092 777.788M1007.86 619.481C925.385 348.794 874.17 205.381 664.979 147.434M716.092 777.788C645.789 852.118 576.22 862.014 383.86 790.566M716.092 777.788C717.019 767.907 717.943 758.218 718.851 748.706C738.284 545.066 749.999 422.301 611.027 217.004M383.86 790.566C216.517 694.589 194.431 593.88 172.31 402.962M383.86 790.566C356.253 522.821 356.086 379.268 541.457 202.807M172.31 402.962C198.194 376.288 221.695 350.174 243.817 325.594C328.214 231.814 392.532 160.347 492.474 165.182M172.31 402.962C172.9 399.581 173.486 396.223 174.067 392.889M373.921 55.822C373.921 55.822 458.399 48.0488 476.146 99.8713M373.921 55.822C229.058 77.5596 208.97 192.749 174.13 392.531M541.457 202.807L492.474 165.182M541.457 202.807L611.027 217.004M611.027 217.004L664.979 147.434M664.979 147.434L689.826 121.168M689.826 121.168L664.979 108.39M476.146 99.8713L492.474 165.182M174.13 392.531L174.126 392.555M174.13 392.531C174.129 392.539 174.127 392.547 174.126 392.555M174.126 392.555L174.097 392.72M174.126 392.555C174.116 392.61 174.107 392.665 174.097 392.72M174.097 392.72L174.067 392.889M174.097 392.72C174.087 392.777 174.077 392.833 174.067 392.889" stroke="#FC8500"/>
<path fill-rule="evenodd" clip-rule="evenodd" d="M1011.41 185.023C876.703 115.74 804.328 92.2014 689.826 121.168L664.979 147.434C874.17 205.381 925.385 348.794 1007.86 619.481C1010.7 614.512 1106.09 272.774 1011.41 185.023Z" fill="url(#paint11_radial_102_4)" fill-opacity="0.2"/>
<path d="M593.28 55.822C575.984 22.0506 516.611 -0.969823 466.208 3.99946C419.017 8.65205 402.85 25.5684 378.927 50.599C377.298 52.3029 375.634 54.0443 373.921 55.822M593.28 55.822C668.714 -1.73397 804.119 32.3954 828.256 38.7845M593.28 55.822L664.979 108.39M593.28 55.822L476.146 99.8713M828.256 38.7845C852.392 45.1735 821.164 23.6017 828.256 38.7845ZM828.256 38.7845C925.242 27.3974 983.724 107.645 1011.41 185.023M828.256 38.7845C828.537 79.4887 790.352 85.6145 736.385 94.2724C714.649 97.7594 690.353 101.657 664.979 108.39M1011.41 185.023C1106.09 272.774 1010.7 614.512 1007.86 619.481M1011.41 185.023C876.703 115.74 804.328 92.2014 689.826 121.168M1007.86 619.481C1005.02 624.45 1000.76 650.007 1000.76 650.007C1000.76 707.508 750.938 891.88 716.092 777.788M1007.86 619.481C925.385 348.794 874.17 205.381 664.979 147.434M716.092 777.788C645.789 852.118 576.22 862.014 383.86 790.566M716.092 777.788C717.019 767.907 717.943 758.218 718.851 748.706C738.284 545.066 749.999 422.301 611.027 217.004M383.86 790.566C216.517 694.589 194.431 593.88 172.31 402.962M383.86 790.566C356.253 522.821 356.086 379.268 541.457 202.807M172.31 402.962C208.313 196.757 226.555 77.9351 373.921 55.822M172.31 402.962C198.193 376.288 221.694 350.175 243.816 325.595C243.816 325.594 243.816 325.594 243.817 325.594C328.214 231.814 392.532 160.347 492.474 165.182M373.921 55.822C373.921 55.822 458.399 48.0488 476.146 99.8713M541.457 202.807L492.474 165.182M541.457 202.807L611.027 217.004M611.027 217.004L664.979 147.434M664.979 147.434L689.826 121.168M689.826 121.168L664.979 108.39M476.146 99.8713L492.474 165.182" stroke="#FC8500"/>
<path fill-rule="evenodd" clip-rule="evenodd" d="M611.027 217.004L541.457 202.807C356.086 379.268 356.253 522.821 383.86 790.566C576.22 862.014 645.789 852.118 716.092 777.788C717.019 767.906 717.943 758.218 718.851 748.706C738.284 545.066 749.999 422.301 611.027 217.004Z" fill="url(#paint12_radial_102_4)" fill-opacity="0.2"/>
<path d="M593.28 55.822C575.984 22.0506 516.611 -0.969823 466.208 3.99946C419.017 8.65205 402.85 25.5684 378.927 50.599C377.298 52.3029 375.634 54.0443 373.921 55.822M593.28 55.822C668.714 -1.73397 804.119 32.3954 828.256 38.7845M593.28 55.822L664.979 108.39M593.28 55.822L476.146 99.8713M828.256 38.7845C852.392 45.1735 821.164 23.6017 828.256 38.7845ZM828.256 38.7845C925.242 27.3974 983.724 107.645 1011.41 185.023M828.256 38.7845C828.537 79.4887 790.352 85.6145 736.385 94.2724C714.649 97.7594 690.353 101.657 664.979 108.39M1011.41 185.023C1106.09 272.774 1010.7 614.512 1007.86 619.481M1011.41 185.023C876.703 115.74 804.328 92.2014 689.826 121.168M1007.86 619.481C1005.02 624.45 1000.76 650.007 1000.76 650.007C1000.76 707.508 750.938 891.88 716.092 777.788M1007.86 619.481C925.385 348.794 874.17 205.381 664.979 147.434M716.092 777.788C645.789 852.118 576.22 862.014 383.86 790.566M716.092 777.788C717.019 767.907 717.943 758.218 718.851 748.706C738.284 545.066 749.999 422.301 611.027 217.004M383.86 790.566C216.517 694.589 194.431 593.88 172.31 402.962M383.86 790.566C356.253 522.821 356.086 379.268 541.457 202.807M172.31 402.962C208.313 196.757 226.555 77.9351 373.921 55.822M172.31 402.962C198.193 376.288 221.694 350.175 243.816 325.595C243.816 325.595 243.817 325.594 243.817 325.594C328.214 231.814 392.532 160.347 492.474 165.182M373.921 55.822C373.921 55.822 458.399 48.0488 476.146 99.8713M541.457 202.807L492.474 165.182M541.457 202.807L611.027 217.004M611.027 217.004L664.979 147.434M664.979 147.434L689.826 121.168M689.826 121.168L664.979 108.39M476.146 99.8713L492.474 165.182" stroke="#FC8500"/>
<path d="M555.655 148.034C555.655 148.034 575.532 84.8533 577.662 82.0137C579.792 79.1741 607.478 86.9831 611.737 93.3721C615.997 99.7611 589.02 157.972 589.02 157.972" stroke="#FC8500" stroke-width="4"/>
<path d="M466.208 3.99946C516.611 -0.969823 575.984 22.0506 593.28 55.822C668.714 -1.73397 804.119 32.3954 828.256 38.7845C925.242 27.3974 983.724 107.645 1011.41 185.023C1106.09 272.774 1010.7 614.512 1007.86 619.481C1005.02 624.45 1000.76 650.007 1000.76 650.007C1000.76 707.508 750.938 891.88 716.092 777.788C645.789 852.118 576.22 862.014 383.86 790.566C216.517 694.589 194.431 593.88 172.31 402.962C208.313 196.757 226.555 77.9351 373.921 55.822C400.792 27.9282 415.805 8.96875 466.208 3.99946Z" fill="url(#paint13_radial_102_4)" fill-opacity="0.2"/>
<path d="M593.28 55.822C575.984 22.0506 516.611 -0.969823 466.208 3.99946C415.805 8.96875 400.792 27.9282 373.921 55.822M593.28 55.822C668.714 -1.73397 804.119 32.3954 828.256 38.7845M593.28 55.822L664.979 108.39M593.28 55.822L476.146 99.8713M828.256 38.7845C852.392 45.1735 821.164 23.6017 828.256 38.7845ZM828.256 38.7845C925.242 27.3974 983.724 107.645 1011.41 185.023M828.256 38.7845C828.65 95.8826 753.355 84.9399 664.979 108.39M1011.41 185.023C1106.09 272.774 1010.7 614.512 1007.86 619.481M1011.41 185.023C876.703 115.74 804.328 92.2014 689.826 121.168M1007.86 619.481C1005.02 624.45 1000.76 650.007 1000.76 650.007C1000.76 707.508 750.938 891.88 716.092 777.788M1007.86 619.481C925.385 348.794 874.17 205.381 664.979 147.434M716.092 777.788C645.789 852.118 576.22 862.014 383.86 790.566M716.092 777.788C736.86 556.355 756.49 431.891 611.027 217.004M383.86 790.566C216.517 694.589 194.431 593.88 172.31 402.962M383.86 790.566C356.253 522.821 356.086 379.268 541.457 202.807M172.31 402.962C208.313 196.757 226.555 77.9351 373.921 55.822M172.31 402.962C296.944 274.522 366.336 159.079 492.474 165.182M373.921 55.822C373.921 55.822 458.399 48.0488 476.146 99.8713M541.457 202.807L492.474 165.182M541.457 202.807L611.027 217.004M611.027 217.004L664.979 147.434M664.979 147.434L689.826 121.168M689.826 121.168L664.979 108.39M476.146 99.8713L492.474 165.182" stroke="#FC8500"/>
<path d="M430.398 718.634C417.076 682.097 413.34 661.117 412.057 622.998" stroke="#FEE1A2" stroke-opacity="0.76" stroke-width="25"/>
<path d="M455.945 761.213C435.638 734.356 453.98 759.248 435.638 732.391" stroke="#FEE1A2" stroke-opacity="0.76" stroke-width="25"/>
<path fill-rule="evenodd" clip-rule="evenodd" d="M991.116 203.114L939.705 177.256L955.089 162.501L999.917 187.393L991.116 203.114ZM1023.21 224.075L999.917 206.751L1008.8 191.978L1017.97 207.699L1023.21 224.075Z" fill="#FEE1A2" fill-opacity="0.76"/>
<path fill-rule="evenodd" clip-rule="evenodd" d="M714.244 193.374L666.426 176.343L678.238 159.881L720.837 174.862L714.244 193.374ZM745.475 212.94L721.552 196.67L729.986 181.498L745.475 212.94Z" fill="#FEE1A2" fill-opacity="0.76"/>
<path fill-rule="evenodd" clip-rule="evenodd" d="M629.371 279.47L592.849 232.31L610.375 223.42C619.65 244.692 623.784 256.966 629.371 279.47Z" fill="#FEE1A2" fill-opacity="0.76"/>
<path fill-rule="evenodd" clip-rule="evenodd" d="M506.321 251.536C515.401 236.869 521.574 229.241 534.197 216.591L541.53 224.946C529.286 236.174 524.047 243.35 515.828 256.75L506.321 251.536ZM492.342 284.761L502.67 257.207L511.565 261.724C502.372 268.547 499.467 276.133 492.342 284.761Z" fill="#FEE1A2" fill-opacity="0.76"/>
<path fill-rule="evenodd" clip-rule="evenodd" d="M569.376 113.093C572.824 101.504 575.598 95.2111 581.814 84.3363L588.308 88.6408C582.089 98.4843 579.862 104.3 576.764 114.874L569.376 113.093ZM566.021 138.133L567.947 117.599L574.794 119.021C569.828 125.324 569.257 130.988 566.021 138.133Z" fill="#FEE1A2" fill-opacity="0.76"/>
<path fill-rule="evenodd" clip-rule="evenodd" d="M461.165 171.054C471.922 168.627 477.942 168.259 488.677 168.433L494.592 178.625C481.786 179.047 474.763 180.396 462.407 184.095L461.165 171.054ZM436.948 187.141C444.45 179.995 448.582 175.924 458.565 171.054V184.095C452.798 183.213 445.34 185.841 436.948 187.141Z" fill="#FEE1A2" fill-opacity="0.76"/>
<path fill-rule="evenodd" clip-rule="evenodd" d="M558.297 30.5967C567.456 36.738 571.863 40.8554 579.118 48.7697L575.786 60.0731C566.673 51.0651 560.865 46.8942 549.682 40.4668L558.297 30.5967ZM529.965 24.0769C540.311 24.6092 546.108 24.8107 556.509 28.709L547.04 37.6772C543.715 32.8836 536.679 29.2762 529.965 24.0769Z" fill="#FEE1A2" fill-opacity="0.76"/>
<path fill-rule="evenodd" clip-rule="evenodd" d="M394.37 66.2077C401.726 62.545 407.347 61.1493 415.332 60.3123L410.747 72.3369C404.969 69.3604 401.41 68.4319 395.025 66.8627L394.37 66.2077ZM426.009 63.8026C431.811 65.278 434.834 66.71 439.765 70.353L434.132 82.1813C429.282 78.7631 426.383 77.2319 420.376 75.6308L426.009 63.8026ZM442.844 72.3369C455.457 78.4394 461.681 83.7888 471.011 95.9185L466.578 107.292C457.037 96.9341 451.612 91.193 438.258 84.1277L442.844 72.3369Z" fill="#FEE1A2" fill-opacity="0.76"/>
<path fill-rule="evenodd" clip-rule="evenodd" d="M600.055 116.648L596.124 129.749L590.229 129.094C594.033 126.408 597.03 120.093 600.055 116.648ZM594.814 134.334C594.814 134.334 586.66 154.816 584.556 155.296C582.451 155.775 573.984 152.9 573.984 152.9L575.818 147.205C575.818 147.205 578.193 148.697 579.891 147.951C581.589 147.205 588.919 132.369 588.919 132.369L594.814 134.334ZM570.999 152.069L564.027 149.515C567.694 148.143 569.698 147.391 573.165 146.068L570.999 152.069Z" fill="#FEE1A2" fill-opacity="0.76"/>
<path d="M477.561 284.995C359.568 442.433 367.138 555.938 388.475 761.868" stroke="#FABE30" stroke-width="6"/>
<path d="M647.873 286.304C759.954 509.481 724.545 604.012 706.826 769.728" stroke="#FABE30" stroke-width="6"/>
<path d="M391.75 209.665C376.029 191.323 203.75 344.037 177.55 435" stroke="#FABE30" stroke-width="6"/>
<path d="M228.644 175.602C264.543 103.174 288.323 86.0127 333.451 72.7597M603.985 53.7634C655.727 28.4242 682.601 27.1366 730.408 25.5964M796.568 115.993C883.692 123.322 929.965 149.255 1015.35 186.738" stroke="#FABE30" stroke-width="6"/>
<path d="M783.467 204.425C896.24 295.488 941.321 401.074 1008.8 628.239" stroke="#FABE30" stroke-width="6"/>
<path d="M700.276 391.112C726.885 490.461 728.357 548.94 725.168 654.44" stroke="#F79930" stroke-width="8"/>
<path d="M437.603 340.018C385.196 444.622 373.13 510.018 382.579 638.063M214.233 370.15C252.848 316.686 280.734 289.106 321.005 250.277M292.183 91.1009C325.79 71.0435 343.32 61.45 381.269 59.6587" stroke="#F79930" stroke-width="8"/>
<path d="M482.801 4.63538C532.031 12.1756 559.133 14.8254 593.504 49.1784M705.517 101.582C797.193 91.0895 826.141 77.6995 833.251 36.0775M705.517 123.854C752.355 112.734 773.069 112.123 807.704 113.373M850.937 268.619C906.341 332.171 934.752 389.045 981.946 518.191" stroke="#F79930" stroke-width="8"/>
<path fill-rule="evenodd" clip-rule="evenodd" d="M897.182 382.304C902.387 387.749 905.345 394.159 909.236 402.248L889.585 412.758C886.735 405.423 883.86 401.808 877.794 395.727L897.182 382.304ZM937.683 520.34C922.267 479.349 911.565 458.544 892.485 421.428L913.933 411.627C935.421 447.507 944.017 470.095 959.132 510.539L937.683 520.34ZM959.132 564.699C953.616 551.426 948.618 543.505 940.678 531.947L963.605 520.34C964.091 535.96 963.846 549.02 960.33 564.699H959.132Z" fill="#FEE1A2" fill-opacity="0.76"/>
<path d="M597.325 1175.48C719.791 1225.5 782.037 1203.85 880.265 1097.76" stroke="url(#paint14_radial_102_4)" stroke-width="50"/>
<path d="M773.109 1393.7L733.304 1089.05" stroke="url(#paint15_radial_102_4)" stroke-opacity="0.5" stroke-width="30"/>
<path d="M393.805 706.055C312.98 852.487 321.081 934.515 406.205 1080.79C448.025 1195.49 488.815 1245.9 576.35 1323.95" stroke="url(#paint16_radial_102_4)" stroke-width="30"/>
<path d="M331.658 404.338C309.581 501.37 314.634 554.361 374.366 644.747" stroke="url(#paint17_radial_102_4)" stroke-width="30"/>
<path d="M417.444 692.278C599.989 821.093 877.596 739.808 952.681 593.083" stroke="url(#paint18_radial_102_4)" stroke-width="50" stroke-linecap="round"/>
<path d="M636.935 669.465C658.756 679.412 733.902 659.371 757.404 639.318" stroke="url(#paint19_radial_102_4)" stroke-width="22" stroke-linecap="round"/>
<path d="M385.2 791.345C242.803 708.527 195.289 624.193 171 402.903C216.455 168.493 249.043 57.3909 375.374 54.4193C459.175 -26.9876 555.511 -5.845 595.469 54.4193C668.4 13.6369 722.106 13.9069 830.63 37.388C903.226 29.906 966.225 74.7255 1008.8 182.808C1080.61 259.348 1057.32 397.793 1008.8 634.134C952.469 771.039 764.633 850.621 714.687 782.83C617.944 874.246 533.351 841.759 385.2 791.345Z" stroke="#FEE1A2" stroke-opacity="0.94"/>
<defs>
<radialGradient id="paint0_radial_102_4" cx="0" cy="0" r="1" gradientUnits="userSpaceOnUse" gradientTransform="translate(287.189 1191.08) rotate(33.0898) scale(200.616 95.0227)">
<stop stop-color="#867EAC"/>
<stop offset="1" stop-color="#867EAC" stop-opacity="0"/>
</radialGradient>
<radialGradient id="paint1_radial_102_4" cx="0" cy="0" r="1" gradientUnits="userSpaceOnUse" gradientTransform="translate(780.406 1358.47) rotate(81.573) scale(112.812 210.938)">
<stop offset="0.256429" stop-color="#867EAC"/>
<stop offset="1" stop-color="#867EAC" stop-opacity="0"/>
</radialGradient>
<radialGradient id="paint2_radial_102_4" cx="0" cy="0" r="1" gradientUnits="userSpaceOnUse" gradientTransform="translate(548.918 1319.15) rotate(81.573) scale(43.5015 81.34)">
<stop offset="0.256429" stop-color="#867EAC"/>
<stop offset="1" stop-color="#867EAC" stop-opacity="0"/>
</radialGradient>
<linearGradient id="paint3_linear_102_4" x1="478.751" y1="420.871" x2="478.751" y2="439.47" gradientUnits="userSpaceOnUse">
<stop stop-color="#FEE1A2" stop-opacity="0.68"/>
<stop offset="1" stop-color="#FEE1A2" stop-opacity="0.31"/>
</linearGradient>
<linearGradient id="paint4_linear_102_4" x1="788.045" y1="353.364" x2="788.045" y2="371.963" gradientUnits="userSpaceOnUse">
<stop stop-color="#FEE1A2" stop-opacity="0.68"/>
<stop offset="1" stop-color="#FEE1A2" stop-opacity="0.31"/>
</linearGradient>
<linearGradient id="paint5_linear_102_4" x1="729.844" y1="370.806" x2="739.455" y2="370.365" gradientUnits="userSpaceOnUse">
<stop stop-color="#FEE1A2" stop-opacity="0.68"/>
<stop offset="1" stop-color="#FEE1A2" stop-opacity="0.31"/>
</linearGradient>
<linearGradient id="paint6_linear_102_4" x1="541.741" y1="435.557" x2="532.13" y2="435.116" gradientUnits="userSpaceOnUse">
<stop stop-color="#FEE1A2" stop-opacity="0.68"/>
<stop offset="1" stop-color="#FEE1A2" stop-opacity="0.31"/>
</linearGradient>
<radialGradient id="paint7_radial_102_4" cx="0" cy="0" r="1" gradientUnits="userSpaceOnUse" gradientTransform="translate(493.759 471.728) rotate(79.6031) scale(11.0216 35.2246)">
<stop offset="0.213542" stop-color="#C79CEE" stop-opacity="0.65"/>
<stop offset="1" stop-color="#C79CEE" stop-opacity="0"/>
</radialGradient>
<radialGradient id="paint8_radial_102_4" cx="0" cy="0" r="1" gradientUnits="userSpaceOnUse" gradientTransform="translate(782.857 396.82) rotate(79.6031) scale(11.9362 35.4661)">
<stop offset="0.213542" stop-color="#C79CEE" stop-opacity="0.65"/>
<stop offset="1" stop-color="#C79CEE" stop-opacity="0"/>
</radialGradient>
<radialGradient id="paint9_radial_102_4" cx="0" cy="0" r="1" gradientUnits="userSpaceOnUse" gradientTransform="translate(788.502 420.745) rotate(78.7095) scale(409.732 109.461)">
<stop stop-color="#FFB300" stop-opacity="0"/>
<stop offset="1" stop-color="#FFB300"/>
</radialGradient>
<radialGradient id="paint10_radial_102_4" cx="0" cy="0" r="1" gradientUnits="userSpaceOnUse" gradientTransform="translate(365.402 343.366) rotate(113.552) scale(483.231 164.256)">
<stop stop-color="#FFB300" stop-opacity="0.28"/>
<stop offset="0.645833" stop-color="#FFB300"/>
</radialGradient>
<radialGradient id="paint11_radial_102_4" cx="0" cy="0" r="1" gradientUnits="userSpaceOnUse" gradientTransform="translate(900.665 248.24) rotate(52.2312) scale(235.289 113.106)">
<stop offset="0.3125" stop-color="#FFB300" stop-opacity="0.29"/>
<stop offset="1" stop-color="#FFB300"/>
</radialGradient>
<radialGradient id="paint12_radial_102_4" cx="0" cy="0" r="1" gradientUnits="userSpaceOnUse" gradientTransform="translate(564.174 506.643) rotate(90.2324) scale(349.983 121.899)">
<stop stop-color="#FFB300" stop-opacity="0"/>
<stop offset="1" stop-color="#FFB300"/>
</radialGradient>
<radialGradient id="paint13_radial_102_4" cx="0" cy="0" r="1" gradientUnits="userSpaceOnUse" gradientTransform="translate(612.756 421.249) rotate(90) scale(417.924 440.446)">
<stop stop-color="#FFB300" stop-opacity="0"/>
<stop offset="0.734375" stop-color="#FFB300"/>
</radialGradient>
<radialGradient id="paint14_radial_102_4" cx="0" cy="0" r="1" gradientUnits="userSpaceOnUse" gradientTransform="translate(761.244 1208.09) rotate(84.2342) scale(68.049 214.749)">
<stop stop-color="#1D1643"/>
<stop offset="0.9999" stop-color="#1D1643" stop-opacity="0"/>
<stop offset="1" stop-color="#1D1643" stop-opacity="0"/>
</radialGradient>
<radialGradient id="paint15_radial_102_4" cx="0" cy="0" r="1" gradientUnits="userSpaceOnUse" gradientTransform="translate(745.643 1307.29) rotate(123.593) scale(213.131 137.503)">
<stop stop-color="#1D1643"/>
<stop offset="0.929854" stop-color="#1D1643" stop-opacity="0"/>
<stop offset="0.9999" stop-color="#1D1643" stop-opacity="0"/>
</radialGradient>
<radialGradient id="paint16_radial_102_4" cx="0" cy="0" r="1" gradientUnits="userSpaceOnUse" gradientTransform="translate(439.487 1063.57) rotate(73.0959) scale(350.62 139.097)">
<stop stop-color="#1D1643" stop-opacity="0"/>
<stop offset="0.38123" stop-color="#1D1643"/>
<stop offset="0.9999" stop-color="#1D1643" stop-opacity="0"/>
</radialGradient>
<radialGradient id="paint17_radial_102_4" cx="0" cy="0" r="1" gradientUnits="userSpaceOnUse" gradientTransform="translate(342.995 543.437) rotate(79.8495) scale(132.598 32.8013)">
<stop stop-color="#1D1643"/>
<stop offset="0.9998" stop-color="#1D1643" stop-opacity="0"/>
<stop offset="0.9999" stop-color="#1D1643" stop-opacity="0"/>
</radialGradient>
<radialGradient id="paint18_radial_102_4" cx="0" cy="0" r="1" gradientUnits="userSpaceOnUse" gradientTransform="translate(704.005 735.675) rotate(86.4033) scale(120.787 395.55)">
<stop stop-color="#1D1643"/>
<stop offset="0.9999" stop-color="#1D1643" stop-opacity="0"/>
<stop offset="1" stop-color="#1D1643" stop-opacity="0"/>
</radialGradient>
<radialGradient id="paint19_radial_102_4" cx="0" cy="0" r="1" gradientUnits="userSpaceOnUse" gradientTransform="translate(715.246 675.471) rotate(59.5911) scale(110.238 89.1787)">
<stop stop-color="#1D1643"/>
<stop offset="0.9999" stop-color="#1D1643" stop-opacity="0"/>
<stop offset="1" stop-color="#1D1643" stop-opacity="0"/>
</radialGradient>
</defs>
</svg>
